<?xml version="1.0" encoding="utf-8"?>
<!-- Generator: Adobe Illustrator 22.1.0, SVG Export Plug-In . SVG Version: 6.00 Build 0)  -->
<svg version="1.1" xmlns="http://www.w3.org/2000/svg" xmlns:xlink="http://www.w3.org/1999/xlink" x="0px" y="0px"
	 viewBox="0 0 1400 980" style="enable-background:new 0 0 1400 980;" xml:space="preserve">
<style type="text/css">
	.st0{fill:#440235;}
	.st1{fill:#4DA8BB;}
	.st2{fill:#FFFFFF;}
	.st3{fill:url(#SVGID_1_);}
	.st4{fill:url(#SVGID_2_);}
	.st5{fill:url(#SVGID_3_);}
	.st6{fill:url(#SVGID_4_);}
	.st7{fill:url(#SVGID_5_);}
	.st8{fill:#EC5946;}
	.st9{fill:#FFE45F;}
</style>
<g id="Background">
	<g id="Layer_1_1_">
	</g>
	<g id="Layer_2">
	</g>
	<g id="Layer_1_2_">
	</g>
	<rect x="0" class="st0" width="1400" height="980"/>
</g>
<g id="object">
	<g>
		<path class="st1" d="M1296,585.8c4.2-24.5,6.9-49.2,8.1-74c25.2-8.7,43.3-32.5,43.3-60.7c0-30.4-21.2-55.9-49.6-62.5
			c-5.1-31.7-12.9-58-24-81.3c-10.7-22.5-24.9-42.2-41.5-58.1c5-9.1,7.8-19.6,7.8-30.7c0-35.4-28.7-64.1-64.1-64.1
			c-31.2,0-57.1,22.2-62.9,51.7c-7.5,0.6-15,1.7-22.5,3.3c-6.7-28.2-32.1-49.2-62.4-49.2c-19.5,0-37,8.7-48.7,22.4
			c-3.9-2.9-8.8-4.7-14-4.7c-12.9,0-23.4,10.5-23.5,23.4c-25.1-1.8-51.7,4.9-74.7,19.7c-9.2,6-17.8,12.9-25.7,21.1
			c-1.3-2.2-2.7-4.4-4.1-6.5c-19.9-29.9-53.1-49.8-88.8-53.2c-29.1-2.8-58.6,5.4-82.4,22.6c-5.9-1.6-11.8-2.6-17.6-3.2
			c1.4-3,2.2-6.4,2.2-9.9c0-13-10.5-23.5-23.5-23.5c-6.6,0-12.6,2.8-16.9,7.2c-11.5-17.4-31.2-29-53.6-29c-19.3,0-36.6,8.5-48.3,22
			c-4.2-6.5-11.4-10.8-19.7-10.8c-13,0-23.5,10.5-23.5,23.5c0,0.8,0,1.6,0.1,2.4c-31.8-6.2-62.5-0.2-86.9,17.6
			c-20.9,15.3-36.8,38.5-47.4,69.2c-13.7-26.1-37.2-45.3-66-53.4c-6.3-1.8-12.6-2.9-18.9-3.5c-2.4-2.2-5-4.2-7.7-6.1
			c-31.8-22.3-73.5-20.1-102.5,2.8c-2-3.2-4.6-6.1-7.9-8.4c-12.7-8.9-30.2-5.9-39.1,6.8s-5.9,30.2,6.8,39.1c3.5,2.4,7.3,4,11.2,4.7
			c-5.4,17.5-5,36,0.8,52.9c-9.3-0.4-18.5,3.8-24.2,11.9c-8.9,12.7-5.9,30.2,6.8,39.1s30.2,5.9,39.1-6.8c1.5-2.1,2.7-4.4,3.5-6.8
			c0.2,0.2,0.5,0.4,0.7,0.6c0.1,26.9,0.3,64.2,1.3,105.7c-17.1,5.5-32.7,16.5-43.8,32.3c-27.3,38.8-17.9,92.4,20.9,119.7
			c3,2.1,6,3.9,9.2,5.6c-14.4,21.7-9,51.1,12.5,66.1c4.5,3.2,9.4,5.5,14.4,6.9c1.1,9.9,2.3,19.3,3.5,28.1c2.9,20.4,6,37.1,9.4,50.9
			c-5.7,4.9-10.6,11-14.2,18.2c-7.9,15.8-8,33.5-1.7,48.7c-6.1,0.8-11.8,4.5-14.8,10.4c-4.7,9.4-0.9,20.9,8.5,25.6
			c9.4,4.7,20.9,0.9,25.6-8.5c0.4-0.7,0.7-1.5,0.9-2.2c2.3,1.6,4.8,3.1,7.4,4.4c17.3,8.7,36.9,8,52.9-0.3
			c0.6,6.3,4.4,12.1,10.4,15.1c9.4,4.7,20.9,0.9,25.6-8.5c2.8-5.5,2.6-11.7,0.1-16.9c16.4-0.4,32.3-4.8,46.3-12.8
			c15.9-9.1,29.3-22.5,40-39.8c26.2,42.8,59.2,52.7,84.1,52.7c0.4,0,0.9,0,1.3,0c1.1,0,2.3,0.1,3.6,0.1c12,0,39.4-2.1,65.4-18.6
			c1.7,2.2,3.6,4.4,5.7,6.4c1.2,1.1,2.5,2.2,3.7,3.2c-1.2,0.7-2.4,1.7-3.4,2.8c-6.1,6.5-5.8,16.7,0.7,22.8
			c6.5,6.1,16.7,5.8,22.8-0.7c3.9-4.2,5.2-9.9,3.9-15c15.1,1.9,30.9-3.3,42.1-15.2c1.7-1.8,3.2-3.7,4.6-5.7c0.4,0.5,0.9,1,1.4,1.5
			c6.5,6.1,16.7,5.8,22.8-0.7c4.6-4.9,5.6-11.9,2.9-17.7c2.6,0.2,5.2,0.4,7.8,0.5c3.7,0.2,7.4,0.2,11.1,0.2
			c37.2,0,74.1-8.1,106.7-23.6c4-1.9,8.7-4.2,13.8-7.3c9,3.8,19.1,6,30.7,6.8c2.9,23.3,15.2,45.3,35.9,59.9
			c38.8,27.3,92.4,17.9,119.7-20.9c7-10,11.6-21,13.9-32.2c3.2-1.4,6.4-3.1,9.6-4.9c0.4,12.4,6.1,23.4,14.9,31
			c-3.8,2.5-6.3,6.8-6.3,11.7c0,7.8,6.3,14.1,14.1,14.1c7.8,0,14.1-6.3,14.1-14.1c0-0.6,0-1.2-0.1-1.7c2.1,0.3,4.2,0.5,6.3,0.5
			c18.5,0,34.3-11.7,40.3-28.1c11.4,2.3,23.2,3.7,35.2,4.1c10.7,20.5,32.1,34.4,56.8,34.4c3.4,0,6.8-0.3,10.1-0.8c0,0.3,0,0.5,0,0.8
			c0,3.9,3.2,7.1,7.1,7.1c3.9,0,7.1-3.2,7.1-7.1c0-1.6-0.5-3-1.4-4.2c8.1-3.1,15.4-7.8,21.5-13.7c1.2,2.3,3.6,3.9,6.4,3.9
			c3.9,0,7.1-3.2,7.1-7.1c0-3.2-2.1-5.9-5-6.8c6.3-9.2,10.3-20.1,11-31.9c8.7-4.5,16.9-9.6,24.3-15.3c1.7-1.3,3.4-2.7,5-4.1
			c0.8,7,6.7,12.4,14,12.4c7.8,0,14.1-6.3,14.1-14.1c0-0.6,0-1.2-0.1-1.7c2.1,0.3,4.2,0.5,6.3,0.5c23.7,0,43-19.2,43-43
			c0-0.4,0-0.8,0-1.2c28.4-6.6,49.5-32.1,49.5-62.4C1354.4,616.2,1328.7,588.7,1296,585.8z"/>
		
			<ellipse transform="matrix(0.9239 -0.3827 0.3827 0.9239 24.947 434.2258)" class="st1" cx="1104" cy="154.4" rx="23.5" ry="23.5"/>
		<circle class="st1" cx="1146.6" cy="114" r="14.1"/>
		
			<ellipse transform="matrix(0.5257 -0.8507 0.8507 0.5257 410.6844 1186.3491)" class="st1" cx="1269.3" cy="224.9" rx="14.1" ry="14.1"/>
		<circle class="st1" cx="1320.9" cy="374.6" r="7"/>
		
			<ellipse transform="matrix(0.9239 -0.3827 0.3827 0.9239 -32.4377 528.6227)" class="st1" cx="1312.6" cy="345.8" rx="13.2" ry="13.2"/>
		
			<ellipse transform="matrix(9.853788e-02 -0.9951 0.9951 9.853788e-02 619.8188 1831.6588)" class="st1" cx="1320.9" cy="573.7" rx="13.2" ry="13.2"/>
		<path class="st1" d="M1224.7,784.1c-3.9,0-7.1,3.2-7.1,7.1c0,3.9,3.2,7.1,7.1,7.1c3.9,0,7.1-3.2,7.1-7.1
			C1231.8,787.3,1228.6,784.1,1224.7,784.1z"/>
		<path class="st1" d="M1245.6,774.3c-3.9,0-7.1,3.2-7.1,7.1c0,3.9,3.2,7.1,7.1,7.1s7.1-3.2,7.1-7.1
			C1252.8,777.5,1249.6,774.3,1245.6,774.3z"/>
		<path class="st1" d="M1321.2,713.8c-3.9,0-7.1,3.2-7.1,7.1c0,3.9,3.2,7.1,7.1,7.1c3.9,0,7.1-3.2,7.1-7.1
			C1328.3,717,1325.1,713.8,1321.2,713.8z"/>
		<circle class="st1" cx="1232.3" cy="154.4" r="14.1"/>
		<circle class="st1" cx="1199.2" cy="122.9" r="5.1"/>
		<circle class="st1" cx="985.7" cy="853.2" r="7.1"/>
		<path class="st1" d="M142.2,867.3c-4.8-2.4-10.6-0.5-13,4.3c-2.4,4.8-0.5,10.6,4.3,13c4.8,2.4,10.6,0.5,13-4.3
			C148.9,875.6,147,869.7,142.2,867.3z"/>
		<path class="st1" d="M606.3,831.2c-3.1,3.3-2.9,8.5,0.4,11.6s8.5,2.9,11.6-0.4c3.1-3.3,2.9-8.5-0.4-11.6
			C614.6,827.7,609.4,827.9,606.3,831.2z"/>
		
			<ellipse transform="matrix(0.9965 -8.380723e-02 8.380723e-02 0.9965 -14.1462 8.6986)" class="st1" cx="96.5" cy="172.8" rx="14.3" ry="14.3"/>
		
			<ellipse transform="matrix(0.9981 -6.232376e-02 6.232376e-02 0.9981 -9.1853 11.3213)" class="st1" cx="176.9" cy="152.9" rx="14.3" ry="14.3"/>
	</g>
	<path class="st2" d="M1286.5,414.6c-4.6-41.3-12.8-73.4-25.9-100.9c-17.2-36.1-43.9-64.5-75-79.8c-32.1-15.8-70.4-17.9-107.8-6
		c-23.6,7.5-45.7,20.5-63.8,37.3c-9.3-17.1-21.5-30-36.4-38.5c-29.8-16.9-69.9-14.2-102.3,6.7c-13.8,8.9-26.1,20.6-37.2,35.5
		c-3.3-8.6-7.4-17.1-12.8-25.1c-17.5-26.2-46.6-43.7-78-46.7c-27.9-2.7-56.4,6.3-78,24.2c-0.2-0.1-0.5-0.2-0.7-0.2
		c-37.1-12.4-73.3,0.1-110.1,15.2l-37.7,15.4c-8-25.3-18.3-39.6-32.6-45.6c-36.7-15.4-73.4-12.7-100.8,7.3
		c-21,15.3-36.4,40.2-45.8,73.9c-2.8,10-5.1,20.8-6.9,32.5c-4.3-13-8.7-24.5-12.6-34c-10.8-26.7-33-46.5-60.8-54.3
		c-27.8-7.8-57-2.4-80.1,14.8c-23.1,17.1-34,35.5-32.6,54.6c-0.1,10.3-1,121.7,3.9,234.4c3,70,7.7,127.4,13.8,170.6
		c11.1,78.6,25.4,98,37.9,106.5c17,11.7,36.1,17.8,55.3,17.8c14.7,0,29.1-3.8,41.5-10.9c20.6-11.8,36.4-32,47.1-60
		c23.9,57.5,57.8,71,84.3,71c0.5,0,1,0,1.5,0c0.8,0,2,0.1,3.4,0.1c12.7,0,45.1-2.6,71.1-26.7c9.1-8.5,16.5-18.8,21.8-30.7
		c27.3,12.4,57.5,19.5,88.2,20.9c3.5,0.1,7,0.2,10.4,0.2c35,0,69.8-7.7,100.4-22.2c6-2.8,12.6-6.2,19-10.9
		c10.9,6.3,24.4,9.3,41.2,9.3c2.8,0,5.8-0.1,8.8-0.3c9.4-0.5,20.8-1.7,32.2-5.7c5.3,6.4,12.3,11.7,20.7,15.7
		c11.3,5.4,25.3,8.3,39.5,8.4l0.6,0c20.3,0,49.4-4,73.2-23.3c6.1-5,11.6-10.6,16.4-17.1c14.2,16.4,33.1,29.4,51.1,34.4
		c17.1,4.7,35.3,7.2,54.1,7.2c9.2,0,18.7-0.6,28.2-1.7c41.1-5,74.5-17.2,99.4-36.2c32.3-24.7,44.1-69.2,53.5-105l0.1-0.3
		c0.7-2.8,1.5-5.6,2.2-8.3C1289.1,564.9,1294.8,489.7,1286.5,414.6z"/>
	<g>
		<g>
			<linearGradient id="SVGID_1_" gradientUnits="userSpaceOnUse" x1="640.3649" y1="258.5468" x2="632.9947" y2="645.4819">
				<stop  offset="0" style="stop-color:#FEE32F"/>
				<stop  offset="1" style="stop-color:#FE923D"/>
			</linearGradient>
			<path class="st3" d="M741.2,562.2c-5.1-10.6-10.8-17.5-17.5-21.1c-6.2-3.3-15.9-3.6-20.6,1.9c-0.6,0.7-1.3,1.2-2.1,1.7
				c-2.5,7.4-6.3,13-11.7,16.9c-9.3,6.7-20.9,6.7-29.3,6.7l-28.6,0l-17.9,14.1c-3.4,2.7-9,7.2-15,7.2c-2.3,0-4.7-0.7-7.1-2.3
				c-8.6-6-10.3-12.6-10.3-17c0.1-9.2,7.6-15.4,9.8-17.1c6.7-6,14-3.1,18-1.6c1.9,0.7,3.6,1.4,5.1,1.4l46.1,0.1
				c8.3,0,15.5-0.3,20.4-3.8c5-3.6,7.8-11.1,8.6-22.8c1.5-22.4-2.2-45.2-10.6-66c-3.6-8.9-11.4-23.8-23.8-25.6l-23.9,5.1
				c-0.4,0.6-0.9,1.1-1.5,1.6c-3,2.4-6.2,5.1-9.4,7.8c-3.3,2.7-6.5,5.4-9.5,7.9c-4,3.3-9,7.4-15.4,9.2c-1.9,0.5-3.8,0.8-5.5,0.8
				c-3.8,0-7.3-1.2-9.9-3.5c-1.9-1.7-3.4-3.9-4.4-6.8c-2.5-6.9-2.2-15.1,0.8-23.2c2.5-6.6,6.4-12.4,9.9-17.5c2.4-3.5,7.1-4.4,10.6-2
				c3.5,2.4,4.4,7.1,2,10.6c-1.4,2.1-2.8,4.2-4.2,6.4c0.6,0.2,1.1,0.4,1.6,0.8l56.5-12c25.3-5.4,51.1-12.3,63-31.8
				c7.9-13,9.2-30.6,3.9-55.5c-4.5-21.2-10.9-38.1-19.5-51.6c-10.4-16.2-24.6-28-40.1-33.1c-27.9-9.3-58.7,1.5-90.4,14.5l-53.8,22
				c5,25.6,9.1,61.2,11.7,110.7c4.6,88,2.9,192.5,1.8,261.6c-0.4,23.8-0.7,44.3-0.7,58.9c0,8.4-0.6,16.3-1.7,23.8
				c27.8,15.7,60,24.8,93.1,26.2c34.1,1.5,67.8-5.2,97.5-19.2c7.6-3.6,16.2-8.2,22.3-15.1c4.3-4.9,7.8-11.3,10.7-19.6
				c7.3-21.1,7.2-44.7,6.6-65.1C756,617.9,753.6,587.9,741.2,562.2z"/>
			<linearGradient id="SVGID_2_" gradientUnits="userSpaceOnUse" x1="329.1213" y1="286.5236" x2="364.8761" y2="677.7235">
				<stop  offset="0" style="stop-color:#FEE32F"/>
				<stop  offset="1" style="stop-color:#FE923D"/>
			</linearGradient>
			<path class="st4" d="M499.6,282.7c-8.1-39.2-17.5-48.5-22.4-50.6c-37.4-15.7-61.9-4.2-73.2,4c-26.4,19.3-55.1,72.6-42.9,216.9
				c17.3-2.7,35.1-8.1,50.5-18.2c3.5-2.3,8.2-1.3,10.5,2.2c2.3,3.5,1.3,8.2-2.2,10.5c-23.9,15.5-52.1,21.3-77,22.7
				c-0.6,0.2-1.2,0.3-1.8,0.3c-0.6,0-1.1,0-1.6-0.1c-3.3,0.1-6.5,0.2-9.7,0.2c-28.3,0-49.9-4.9-51.7-5.3c-4.1-1-6.6-5.1-5.7-9.2
				c1-4.1,5.1-6.6,9.2-5.7c0.4,0.1,22.7,5.1,51.2,4.8c-3.5-64.4-21.9-121.7-37-159c-7.5-18.6-22.9-32.3-42.2-37.7
				c-19.3-5.4-39.5-1.7-55.6,10.2c-10.3,7.7-22.4,19.1-21.2,30.2c0,0.3,0,0.6,0,0.9c0,1.1-1.2,116.2,3.9,234
				c3,69.1,7.6,125.6,13.5,167.9c3.3,23.1,12.3,77.9,25.9,87.2c21.8,15,46.8,17.1,66.7,5.7c21.1-12.1,54.7-50.3,48-171.3
				c-33.5,4.2-59.1,11.6-59.5,11.7c-0.7,0.2-1.4,0.3-2.2,0.3c-3.3,0-6.3-2.1-7.3-5.5c-1.2-4,1.1-8.3,5.1-9.5
				c2-0.6,29.6-8.6,65.3-12.7c1.3-1.3,3-2.2,5-2.4c1.8-0.1,3.5,0.4,4.9,1.4c25.9-2.3,54.9-2.3,81.2,4.1c4.1,1,6.6,5.1,5.6,9.2
				c-1,4.1-5.1,6.6-9.2,5.6c-23.5-5.6-49.8-5.8-73.8-3.8c0.3,5.2,0.5,10.4,0.7,15.4c0.3,0.7,0.4,1.5,0.5,2.2
				c0,0.4,2.3,42.9,14.4,84.3c6.9,23.8,15.7,42.6,26,55.7c12.2,15.6,26,23,42.3,22.4c0.3,0,0.5,0,0.8,0c0.3,0,31.9,1.9,54.5-19.2
				c15.8-14.7,23.8-37.4,23.8-67.2c0-14.7,0.3-35.3,0.7-59.2c1.1-68.9,2.8-173.1-1.8-260.6C509.4,348.1,505.3,310,499.6,282.7z"/>
			<linearGradient id="SVGID_3_" gradientUnits="userSpaceOnUse" x1="1131.2236" y1="267.8965" x2="1123.8534" y2="654.8315">
				<stop  offset="0" style="stop-color:#FEE32F"/>
				<stop  offset="1" style="stop-color:#FE923D"/>
			</linearGradient>
			<path class="st5" d="M1235,325.8c-14.5-30.4-36.5-54-62-66.6c-25.5-12.6-56.3-14.1-86.7-4.4c-28.6,9.1-54.3,27.7-70.9,51.2
				c2,8,3.7,16.6,5,25.9c15.5,109.3-1.6,218.7-22.2,330.4c-2.7,14.4-5.7,29.1-10.2,42.8c6.3,20.9,30,44,51.6,50
				c22,6.1,46,7.7,71.3,4.6c36-4.4,64.8-14.7,85.7-30.6c24.6-18.8,34.5-56.5,43.3-89.7c0.8-3,1.6-5.9,2.3-8.8
				c18.7-69.6,24.1-141.3,16.2-212.9C1254.2,379.6,1246.7,350.4,1235,325.8z M1208.4,397.8c-19.2,33.7-37.1,68.1-53.6,103.2
				c15,25.2,29.6,50.6,43.8,76.2c6.5,11.7-11.5,22.2-17.9,10.5c-11.9-21.4-24-42.6-36.4-63.7c-14,31.2-26.9,62.8-38.6,95
				c-4.6,12.5-24.6,7.1-20-5.5c13.8-37.7,29-74.7,45.8-111.1c-15.9-26.5-32.1-52.7-48.8-78.6c-7.3-11.3,10.7-21.7,17.9-10.5
				c14.1,22,27.9,44.2,41.5,66.5c15.1-31.3,31.2-62.1,48.5-92.3C1197.1,375.7,1215.1,386.2,1208.4,397.8z"/>
			<linearGradient id="SVGID_4_" gradientUnits="userSpaceOnUse" x1="927.6929" y1="264.0197" x2="920.3227" y2="650.9548">
				<stop  offset="0" style="stop-color:#FEE32F"/>
				<stop  offset="1" style="stop-color:#FE923D"/>
			</linearGradient>
			<path class="st6" d="M1005.3,334.1c-6.1-43.3-19.8-70.4-41.7-82.8c-20.7-11.7-49.4-9.4-73,5.8c-19.6,12.6-35.9,33.1-50,62.5
				c-0.2,0.4-0.4,0.7-0.6,1.1c23.8,90.8,37,189.7,39.4,294.2c0.3,14.5,0.5,30-1.4,45.6c-2.2,18.4-7.1,36.4-14.6,53.3
				c-3.4,7.6-8.1,16.9-15.4,24.6c4.4,14.9,24.7,21.7,42.9,21.8c0.2,0,0.3,0,0.5,0c15.8,0,38.1-3,55.4-17
				c23-18.6,30.4-50.2,36.5-83.6C1003.6,549.2,1020.5,441.2,1005.3,334.1z"/>
			<linearGradient id="SVGID_5_" gradientUnits="userSpaceOnUse" x1="775.4973" y1="261.1207" x2="768.1271" y2="648.0558">
				<stop  offset="0" style="stop-color:#FEE32F"/>
				<stop  offset="1" style="stop-color:#FE923D"/>
			</linearGradient>
			<path class="st7" d="M862.9,658.7c1.7-14.6,1.6-29.5,1.3-43.5c-2.5-112.1-17.6-217.4-45-313.2c-4.4-15.3-9-30.1-17.4-42.7
				c-12.6-18.9-34.5-32-57.1-34.2c-20.9-2-43,5.3-58.8,19.2c10.2,7.2,19.3,16.9,26.7,28.4c9.6,15,16.7,33.6,21.6,56.6
				c3.8,18.2,7.4,44.9-5.8,66.6c-11.4,18.6-30.8,27.7-51.9,33.7c6.4,6,11.9,14.4,16.2,25.1c8.9,22.1,13,46.3,11.8,70.2
				c8.3-2.6,18.1-1.8,26.6,2.8c9.6,5.2,17.4,14.3,24,27.9c13.6,28.2,16.3,60.2,17.2,90.6c0.6,21.8,0.6,46.9-7.5,70.5
				c-2.1,6.1-4.5,11.4-7.3,16c7.6,7.3,20.5,10.3,39.4,9.2c12.3-0.7,26.1-2.5,36.2-10.3c8.1-6.3,13.1-16.1,16.6-23.9
				C856.4,692.1,860.9,675.6,862.9,658.7z"/>
			<path class="st8" d="M1248.8,319.3c-16-33.5-40.5-59.6-69-73.7c-29.1-14.3-63.9-16.2-98.1-5.2c-27.9,8.9-53.4,26-71.7,47.9
				c-8.7-23.8-21.6-40.4-38.9-50.2c-25.6-14.5-60.4-12-88.8,6.3c-18.6,12-34.5,30.1-48.2,54.8c-0.1-0.4-0.2-0.9-0.4-1.3
				c-4.5-15.8-9.8-32.5-19.3-46.9c-15.3-23-40.9-38.3-68.4-40.9c-27.1-2.6-54.7,7.3-74,26.4c-2.5-1.1-5-2.2-7.6-3
				c-32.9-11-66.5,0.7-101,14.9l-51.3,21c-9.1-37.2-20.1-47.5-29-51.2c-32.3-13.6-64.4-11.5-88.1,5.8
				c-37.3,27.2-54.6,89.4-51.7,185.1c-7.5-47.6-21.4-89-33.3-118.3c-9.3-23-28.4-40-52.2-46.6c-23.8-6.7-48.9-2.1-68.8,12.7
				c-19.5,14.4-28.6,29.1-27.3,43.7c-0.1,7.8-1.1,119.8,3.9,234.4c3,69.6,7.6,126.6,13.7,169.4c10.6,74.8,23.5,91.6,32.3,97.6
				c15,10.3,31.7,15.5,47.9,15.5c12.3,0,24.3-3,35-9.1c20-11.5,35.1-32.5,44.6-62.6c3.2-10.1,5.8-21.1,7.7-33.1
				c11.8,49,36.1,105,85.6,105c0.6,0,1.1,0,1.7,0c0.6,0,1.7,0.1,3.2,0.1c10.2,0,39.4-2,62.2-23.2c11-10.2,18.8-23.4,23.5-39.2
				c29,15.5,62,24.4,95.9,25.9c3.3,0.1,6.6,0.2,9.9,0.2c33.2,0,65.8-7.2,94.8-20.9c7.8-3.7,16.7-8.4,24.1-15.5
				c9.5,8.5,23.3,12.7,41.8,12.7c2.6,0,5.3-0.1,8-0.2c11.5-0.7,25.6-2.4,37.8-9c4,8.5,11.3,15.4,21.4,20.2c9.6,4.6,21.7,7.1,34,7.1
				c0.2,0,0.4,0,0.6,0c18.3,0,44.2-3.6,65-20.4c10.3-8.4,17.9-18.8,23.8-30.4c11.9,20.5,34.2,39.4,55.5,45.2c16,4.4,33,6.7,50.6,6.7
				c8.7,0,17.6-0.5,26.6-1.6c38.7-4.7,70-16,93.1-33.6c28.8-22,39.9-64.1,48.8-98c0.8-2.9,1.5-5.8,2.3-8.7
				c19.2-71.5,24.8-145,16.6-218.6C1269.1,376.1,1261.3,345.4,1248.8,319.3z M513.8,656.4c-0.4,23.9-0.7,44.5-0.7,59.2
				c0,29.9-8,52.5-23.8,67.2c-22.6,21.1-54.2,19.2-54.5,19.2c-0.3,0-0.5,0-0.8,0c-16.3,0.5-30.1-6.8-42.3-22.4
				c-10.3-13.2-19-31.9-26-55.7c-12.1-41.4-14.4-83.8-14.4-84.3c0-0.8-0.2-1.5-0.5-2.2c-0.2-5-0.4-10.2-0.7-15.4
				c23.9-2,50.3-1.8,73.8,3.8c4.1,1,8.2-1.5,9.2-5.6c1-4.1-1.5-8.2-5.6-9.2c-26.3-6.3-55.3-6.4-81.2-4.1c-1.4-1-3.1-1.5-4.9-1.4
				c-2,0.1-3.7,1-5,2.4c-35.7,4.1-63.3,12.1-65.3,12.7c-4,1.2-6.3,5.4-5.1,9.5c1,3.3,4,5.5,7.3,5.5c0.7,0,1.4-0.1,2.2-0.3
				c0.5-0.1,26.1-7.6,59.5-11.7c6.7,121-27,159.2-48,171.3c-19.9,11.4-44.9,9.3-66.7-5.7c-13.6-9.3-22.6-64.1-25.9-87.2
				c-6-42.3-10.5-98.8-13.5-167.9c-5.1-117.8-3.9-232.9-3.9-234c0-0.3,0-0.6,0-0.9c-1.2-11.1,10.8-22.6,21.2-30.2
				c16.1-11.9,36.3-15.6,55.6-10.2c19.3,5.4,34.7,19.2,42.2,37.7c15.2,37.3,33.5,94.6,37,159c-28.5,0.4-50.8-4.7-51.2-4.8
				c-4.1-1-8.2,1.6-9.2,5.7c-1,4.1,1.6,8.2,5.7,9.2c1.7,0.4,23.4,5.3,51.7,5.3c3.1,0,6.4-0.1,9.7-0.2c0.5,0.1,1.1,0.1,1.6,0.1
				c0.6,0,1.2-0.1,1.8-0.3c24.9-1.4,53.1-7.2,77-22.7c3.5-2.3,4.5-7,2.2-10.5c-2.3-3.5-7-4.5-10.5-2.2c-15.4,10-33.1,15.5-50.5,18.2
				c-12.2-144.3,16.5-197.6,42.9-216.9c11.3-8.2,35.8-19.7,73.2-4c4.9,2.1,14.3,11.4,22.4,50.6c5.7,27.4,9.8,65.5,12.3,113.2
				C516.6,483.3,514.9,587.5,513.8,656.4z M750.2,711.7c-2.9,8.3-6.4,14.7-10.7,19.6c-6.1,6.9-14.7,11.5-22.3,15.1
				c-29.7,14-63.4,20.7-97.5,19.2c-33.2-1.4-65.3-10.5-93.1-26.2c1.2-7.4,1.7-15.4,1.7-23.8c0-14.6,0.3-35.1,0.7-58.9
				c1.1-69.1,2.8-173.6-1.8-261.6c-2.6-49.5-6.8-85-11.7-110.7l53.8-22c31.7-13,62.5-23.9,90.4-14.5c15.5,5.2,29.7,16.9,40.1,33.1
				c8.6,13.5,15,30.3,19.5,51.6c5.3,24.9,4,42.5-3.9,55.5c-11.9,19.5-37.6,26.4-63,31.8l-56.5,12c-0.5-0.3-1-0.6-1.6-0.8
				c1.3-2.2,2.7-4.3,4.2-6.4c2.4-3.5,1.4-8.2-2-10.6c-3.5-2.4-8.2-1.4-10.6,2c-3.5,5.1-7.4,10.9-9.9,17.5c-3,8.1-3.3,16.3-0.8,23.2
				c1.1,2.9,2.5,5.1,4.4,6.8c2.6,2.3,6.1,3.5,9.9,3.5c1.8,0,3.6-0.3,5.5-0.8c6.4-1.8,11.4-5.9,15.4-9.2c3-2.4,6.3-5.2,9.5-7.9
				c3.2-2.7,6.5-5.4,9.4-7.8c0.6-0.5,1.1-1,1.5-1.6l23.9-5.1c12.4,1.8,20.2,16.8,23.8,25.6c8.4,20.8,12.1,43.6,10.6,66
				c-0.8,11.7-3.6,19.1-8.6,22.8c-4.8,3.5-12.1,3.8-20.4,3.8l-46.1-0.1c-1.5,0-3.2-0.7-5.1-1.4c-4-1.6-11.3-4.4-18,1.6
				c-2.3,1.7-9.8,8-9.8,17.1c0,4.4,1.7,11,10.3,17c2.4,1.7,4.8,2.3,7.1,2.3c6.1,0,11.6-4.5,15-7.2l17.9-14.1l28.6,0
				c8.5,0,20.1,0,29.3-6.7c5.3-3.9,9.2-9.5,11.7-16.9c0.8-0.4,1.5-1,2.1-1.7c4.7-5.5,14.4-5.2,20.6-1.9c6.7,3.6,12.4,10.5,17.5,21.1
				c12.4,25.7,14.8,55.7,15.7,84.4C757.4,667,757.5,690.6,750.2,711.7z M599.1,446.7c-2.8,2.2-5.6,4.3-8.4,5.1
				c-0.5,0.1-0.9,0.2-1.2,0.2c0-0.1-0.1-0.2-0.1-0.3c-0.3-0.9-0.5-1.8-0.7-2.8L599.1,446.7z M608,567.3l-4,3.2
				c-1.2,1-3.5,2.8-4.9,3.5c-2-1.6-2.8-2.9-2.8-3.7c0-1.5,2.2-3.9,3.7-5c0.2-0.2,0.5-0.3,0.7-0.5c0.7,0.2,1.8,0.6,2.6,0.9
				C604.6,566.2,606.2,566.8,608,567.3z M832.9,731.5c-10.1,7.8-24,9.6-36.2,10.3c-18.8,1.1-31.8-1.9-39.4-9.2
				c2.8-4.7,5.2-10,7.3-16c8.1-23.6,8.1-48.7,7.5-70.5c-0.9-30.3-3.6-62.3-17.2-90.6c-6.6-13.6-14.4-22.7-24-27.9
				c-8.5-4.5-18.3-5.3-26.6-2.8c1.2-23.8-2.8-48-11.8-70.2c-4.3-10.7-9.8-19.2-16.2-25.1c21.1-6,40.5-15.1,51.9-33.7
				c13.2-21.7,9.6-48.4,5.8-66.6c-4.9-23.1-11.9-41.6-21.6-56.6c-7.4-11.5-16.5-21.1-26.7-28.4c15.8-13.9,37.9-21.2,58.8-19.2
				c22.6,2.2,44.5,15.3,57.1,34.2c8.4,12.6,13,27.4,17.4,42.7c27.4,95.8,42.6,201.1,45,313.2c0.3,14,0.5,28.9-1.3,43.5
				c-2,16.9-6.5,33.4-13.4,48.9C846,715.5,841,725.3,832.9,731.5z M946.7,743.1c-17.3,14-39.6,17-55.4,17c-0.2,0-0.3,0-0.5,0
				c-18.2-0.1-38.5-6.8-42.9-21.8c7.3-7.7,12-16.9,15.4-24.6c7.5-17,12.4-34.9,14.6-53.3c1.8-15.6,1.7-31.1,1.4-45.6
				c-2.3-104.5-15.6-203.3-39.4-294.2c0.2-0.3,0.5-0.7,0.6-1.1c14.1-29.4,30.4-49.9,50-62.5c23.6-15.3,52.3-17.6,73-5.8
				c21.9,12.4,35.6,39.5,41.7,82.8c15.2,107.1-1.8,215-22.1,325.5C977.1,693,969.7,724.5,946.7,743.1z M1242.2,630.6
				c-0.8,2.9-1.5,5.8-2.3,8.8c-8.7,33.2-18.7,70.9-43.3,89.7c-20.9,15.9-49.7,26.2-85.7,30.6c-25.3,3.1-49.3,1.5-71.3-4.6
				c-21.6-6-45.4-29.1-51.6-50c4.5-13.7,7.6-28.3,10.2-42.8c20.5-111.7,37.7-221,22.2-330.4c-1.3-9.3-3-17.9-5-25.9
				c16.7-23.5,42.4-42.1,70.9-51.2c30.4-9.7,61.2-8.1,86.7,4.4c25.5,12.5,47.5,36.2,62,66.6c11.7,24.6,19.1,53.7,23.4,91.9
				C1266.3,489.3,1260.9,561,1242.2,630.6z"/>
			<path class="st8" d="M1190.5,387.3c-17.3,30.2-33.4,61-48.5,92.3c-13.5-22.3-27.4-44.5-41.5-66.5c-7.2-11.2-25.2-0.8-17.9,10.5
				c16.7,26,32.9,52.2,48.8,78.6c-16.7,36.4-32,73.5-45.8,111.1c-4.6,12.6,15.5,18,20,5.5c11.7-32.1,24.6-63.8,38.6-95
				c12.4,21.1,24.5,42.3,36.4,63.7c6.5,11.7,24.4,1.2,17.9-10.5c-14.2-25.6-28.8-51-43.8-76.2c16.5-35.1,34.4-69.5,53.6-103.2
				C1215.1,386.2,1197.1,375.7,1190.5,387.3z"/>
		</g>
		<path class="st2" d="M211.6,290.5c10.7-3.2,6.2-20-4.6-16.8c-26.1,7.7-25.1,37.7-23.5,59.5c1.9,27,5.8,53.9,11.5,80.3
			c2.3,11,19.1,6.3,16.8-4.6c-4.7-22.2-8.2-44.6-10.2-67.2c-0.9-10.9-2.5-22.3-1.4-33.2C200.9,301.3,203.9,292.8,211.6,290.5z"/>
		<path class="st2" d="M201.6,432.6c-4.7,0.2-8.7,3.8-8.7,8.7v8.5c0,4.6,4,8.9,8.7,8.7c4.7-0.2,8.7-3.8,8.7-8.7v-8.5
			C210.3,436.7,206.3,432.4,201.6,432.6z"/>
		<path class="st2" d="M455.4,237.1c-1.1-4.1-6.3-7.9-10.7-6.1c-23.4,9.6-39.8,29.1-49,52.3c-5.4,13.5-7.9,28-9.1,42.4
			c-1.2,13.5-3,29,2.4,41.7c1.8,4.3,8.2,5.3,11.9,3.1c4.5-2.6,5-7.6,3.1-11.9c-1.9-4.4-1-10.5-0.9-15.2c0.1-6.2,0.4-12.5,1-18.7
			c1.1-11.9,3.5-23.8,7.7-35c6.6-17.7,19.7-34.7,37.6-42C453.6,246,456.7,242,455.4,237.1z"/>
		<path class="st2" d="M410.2,395.4c-1.1-1.8-3.1-3.5-5.2-4c-4.3-1-9.8,1.3-10.7,6.1l-1.2,6.1c-0.5,2.3-0.3,4.6,0.9,6.7
			c1.1,1.8,3.1,3.5,5.2,4c4.3,1,9.8-1.3,10.7-6.1l1.2-6.1C411.5,399.8,411.4,397.5,410.2,395.4z"/>
		<path class="st2" d="M380.9,579.6c-38.7-2.1-77.6,3.1-114.4,15.4c-10.6,3.5-6,20.4,4.6,16.8c35.4-11.9,72.4-16.9,109.7-14.8
			C392.1,597.7,392,580.3,380.9,579.6z"/>
		<path class="st2" d="M415.2,579.3c-0.4-0.4-0.8-0.8-1.2-1.2c-1.6-1.6-3.9-2.5-6.2-2.5c-1.2,0-2.3,0.2-3.4,0.7
			c-1.1,0.4-2,1-2.8,1.8c-1.5,1.7-2.7,3.8-2.5,6.2c0.1,2.3,0.9,4.5,2.5,6.2c0.4,0.4,0.8,0.8,1.2,1.2c1.6,1.6,3.9,2.5,6.2,2.5
			c1.2,0,2.3-0.2,3.4-0.7c1.1-0.4,2-1,2.8-1.8c1.5-1.7,2.7-3.8,2.5-6.2C417.7,583.1,416.9,581,415.2,579.3z"/>
		<path class="st2" d="M689.2,328.7c-5.5-18.2-14.4-39.3-30.2-50.9c-15.6-11.5-36-9.1-54-6.4c-4.7,0.7-7.2,6.6-6.1,10.7
			c1.4,5,6,6.8,10.7,6.1c12.9-2,29.2-4.5,40.2,4.3c11.7,9.4,18.4,26.8,22.6,40.7C675.7,344,692.5,339.4,689.2,328.7z"/>
		<path class="st2" d="M690.6,356.7c-4.7,0.2-8.7,3.8-8.7,8.7v8.6c0,4.6,4,8.9,8.7,8.7c4.7-0.2,8.7-3.8,8.7-8.7v-8.6
			C699.3,360.8,695.3,356.5,690.6,356.7z"/>
		<path class="st2" d="M820.6,379.9c-2.8-15.6-5.6-31.3-8.3-46.9c-2.5-13.9-4.6-28-9-41.5c-7.7-23.6-24.1-46.6-49.8-51.7
			c-10.9-2.1-15.6,14.6-4.6,16.8c22.8,4.5,34.4,26.3,39.8,46.9c7,26.4,10.4,54.1,15.1,80.9c0.8,4.6,6.5,7.2,10.7,6.1
			C819.4,389.2,821.4,384.5,820.6,379.9z"/>
		<path class="st2" d="M984.4,324c-4.5-24.7-12.7-64.7-45.7-62.8c-11.1,0.7-11.2,18.1,0,17.4c11-0.6,18,8.9,21.4,18.3
			c4.6,12.7,6.9,26.6,9,39.9c4.4,27.7,5,56,2.5,83.9c-1,11.2,16.4,11.1,17.4,0C991.8,388.4,990.2,355.9,984.4,324z"/>
		<path class="st2" d="M974.2,464.8c-5,0-8.3,4-8.7,8.7c-0.5,5.7-1,11.4-1.4,17.2c-0.4,4.7,4.3,8.7,8.7,8.7c5,0,8.3-4,8.7-8.7
			c0.5-5.7,1-11.4,1.4-17.2C983.3,468.8,978.7,464.8,974.2,464.8z"/>
		<path class="st2" d="M1223.3,340.5c-10.8-23.6-26.2-46.8-49-60.2c-24.9-14.7-56.4-14.1-80.8,1.4c-9.4,6-0.7,21.1,8.8,15
			c20.3-13,45.7-12.8,65.9,0.3c18.8,12.1,30.9,32.5,40,52.3c2,4.3,8.1,5.3,11.9,3.1C1224.5,349.9,1225.2,344.8,1223.3,340.5z"/>
		<path class="st2" d="M1241.4,388.2c-0.5-2.4-1-4.8-1.4-7.1c-0.9-4.5-6.5-7.5-10.7-6.1c-4.8,1.5-7,5.9-6.1,10.7
			c0.5,2.4,1,4.8,1.4,7.1c0.9,4.5,6.5,7.5,10.7,6.1C1240.1,397.4,1242.4,393,1241.4,388.2z"/>
		<path class="st2" d="M1191.6,689.5c-8.4,13.3-18.5,25.1-30.1,35.6c-8.3,7.5,4,19.8,12.3,12.3c12.7-11.5,23.7-24.7,32.8-39.1
			C1212.6,688.8,1197.5,680.1,1191.6,689.5z"/>
		<path class="st9" d="M315.7,670.5c-2,10.1-4.4,20-5.9,30.2c-1.5,9.9-2.4,19.8-3.8,29.7c-1.3,8.8-2.9,17.8-7.3,25.6
			c-4.3,7.7-10.9,14.1-18.2,19c-13,8.7-31.2,13.8-45,3.8c-5.9-4.3-10.1-10.5-13.4-16.8c-1.7-3.2-3.3-6.5-4.7-9.8
			c-1.8-3.9-4.8-7.8-6.1-11.9c-0.5-1.7-3.3-1-2.7,0.8c1,3.2,0.7,6.7,1.5,10c0.8,3.3,1.8,6.5,3,9.7c2.4,6.1,5.6,12,9.7,17.2
			c8.2,10.5,20.5,17,33.9,16.2c15.1-0.9,28.9-8.9,39.5-19.3c11.6-11.4,17-25.3,19.1-41.3c2.8-20.9,3.6-41.6,4.4-62.6
			C319.7,668.9,316.1,668.3,315.7,670.5z"/>
		<path class="st9" d="M461.9,779.5c-9.2-1.4-18.2-0.7-27.3-3.4c-9.3-2.9-18-7.8-25.5-14c-14.8-12.3-25.2-30-32.1-47.7
			c-0.8-2.1-4-1.3-3.4,0.9c5.5,20.8,14.8,40.4,31.1,54.9c7.8,7,17.3,12.2,27.3,15.4c9.5,3,21.4,5,30.8,0.7
			C465.6,785,465,779.9,461.9,779.5z"/>
		<path class="st9" d="M496.7,721.3c-3.1,9.4-3.8,19.3-5.8,29c-2.1,10.1-8.9,16-15.1,23.7c-1.4,1.7,0.4,4.7,2.5,3.3
			c8-5.1,14.9-12.6,18.4-21.5c3.9-10.2,5.7-22.8,5.9-33.7C502.7,718.6,497.7,718.1,496.7,721.3z"/>
		<path class="st9" d="M718,723.8c-6,2.1-11.3,6.1-17,8.8c-6.2,2.9-12.6,5.2-19.2,7c-13.4,3.7-27.3,5.2-41.1,5.2
			c-15.3-0.1-30.6-2-45.6-4.4c-14.9-2.4-29.7-6.4-44.7-8.2c-2.6-0.3-2.6,3.4-0.6,4.2c14.9,6,31.4,9.9,47.1,13.2
			c15.3,3.3,30.9,5.2,46.6,5.1c13.8-0.1,27.8-1.7,41.1-5.3c6.8-1.9,13.5-4.3,19.9-7.3c5.9-2.8,13.3-6.3,17.5-11.5
			C724.2,727.8,722.2,722.3,718,723.8z"/>
		<path class="st9" d="M749.4,672.9c-4.6,14.5-9,28.4-17.8,41c-1.3,1.9,1.8,3.6,3.1,1.8c9.1-12.4,16.6-26.9,17.2-42.5
			C752,671.7,749.8,671.5,749.4,672.9z"/>
		<path class="st9" d="M827.4,715.5c-4.4,0.2-7.3,2.4-11.1,4.4c-4.7,2.5-9.6,4.6-14.7,6.2c-9.7,3-20.3,4.8-30.4,4.5
			c-2.3-0.1-2.2,3.3,0,3.5c11,1.1,21.3,0.6,32-2.4c8.1-2.3,21.7-5.9,25.5-14.1C829.1,716.7,828.6,715.4,827.4,715.5z"/>
		<path class="st9" d="M958.9,696.5c-12.5,11.8-23.8,23.9-39.9,31c-8.3,3.7-17.4,6.2-26.5,6.9c-8.6,0.6-17-1.3-25.5-1.3
			c-1.9,0-2.3,2.3-0.9,3.4c7.2,5.3,17.8,6,26.4,5.8c9.9-0.3,19.6-2.4,28.7-6.3c16.7-7.1,33.5-19.7,42.8-35.5
			C966,697.2,961.6,693.9,958.9,696.5z"/>
		<path class="st9" d="M965.1,694c-0.5,0-0.5,0.8,0,0.8C965.6,694.8,965.6,694,965.1,694z"/>
		<path class="st9" d="M973.7,671.7c-3,3.8-5.2,7.6-6.9,12.1c-0.6,1.6,2,2.7,2.7,1.1c1.9-4,3.9-8,5.9-11.9
			C976,672,974.5,670.6,973.7,671.7z"/>
		<path class="st9" d="M1136.3,740.9c-5.9-0.2-11.8,1-17.7,1.4c-5.9,0.5-11.9,0.6-17.8,0.5c-12.4-0.3-24.7-2-36.8-4.8
			c-11.8-2.7-23.3-6.6-34.4-11.6c-10-4.5-22.3-10.2-28.7-19.5c-1.8-2.6-6-0.3-4.4,2.5c12.3,21.3,39.4,31.4,62.1,37.7
			c12.5,3.4,25.5,5.3,38.4,5.9c12.7,0.6,28.4,1.2,40.4-3.6C1141.8,747.7,1141.4,741.1,1136.3,740.9z"/>
		<path class="st9" d="M1221.6,650.1c-5.1,7-9.1,14.5-14.6,21.2c-3.2,3.8,2.1,9.3,5.6,5.6c6.5-7,12.9-14.7,16.2-23.8
			C1230.4,648.6,1224,646.8,1221.6,650.1z"/>
		<path class="st9" d="M499.5,422.1c-0.1-1.9-2.9-1.9-2.9,0c-0.4,41.6-1,83.2-2.4,124.8c-0.7,20.8-1.1,41.6-2,62.4
			c-0.4,10-0.8,20.1-1.1,30.1c-0.4,10.7-1,21.6,0.3,32.2c0.4,2.8,4.6,4,5.4,0.7c4.8-19.5,4.5-40.9,5.2-60.9
			c0.7-21.1,1.4-42.3,1.4-63.5C503.3,506,502.2,464,499.5,422.1z"/>
		<path class="st9" d="M667.4,520.6c-1.1,1.2-3,1.7-4.3,2.8c-1.8,1.6-3.4,3.1-5.5,4.2c-4.4,2.4-9.4,3.7-14.4,4.5
			c-6.2,1-12.4,1.5-18.7,1.8c-6.5,0.3-13.9,1-20.4-0.2c-1.9-0.3-2.7,2.4-0.8,2.9c7.2,1.8,13.7,4.3,21.2,5c7.4,0.7,14.8,0.1,22-1.1
			c5.4-0.9,10.8-2.4,15.6-5.1c2.4-1.4,4.8-3.1,6.7-5.2c2.4-2.6,1.7-4.2,2.5-7.3C671.9,520.7,669.1,518.8,667.4,520.6z"/>
		<path class="st9" d="M845,534.9c-2.1-39.2-9-77.6-19.3-115.5c-0.7-2.4-4.2-1.4-3.8,1c7.5,38,11.7,76.8,13.6,115.5
			c0.9,19,1,38.1,0.2,57.1c-0.4,9.7-1,19.4-1.8,29c-0.8,9.6-2.6,19.3-1.9,28.9c0.3,4.1,5.9,5,7.2,1c3.1-9.2,3.5-19.2,4.4-28.8
			c0.9-10,1.5-20,1.8-30C846.1,573.6,846,554.2,845,534.9z"/>
		<path class="st9" d="M987,522.4c-4.2,9.2-6.5,19.3-8.8,29.2c-2.5,10.8-5.1,21.6-7.6,32.4c-2.5,10.5-4.7,21-7,31.5
			c-1.1,5.3-2.3,10.5-3.4,15.8c-1.1,4.9-3,10.5-1,15.3c1.2,2.9,4.5,4.3,7,1.9c3.8-3.7,4.3-9,5.3-14.1c0.9-4.9,1.9-9.9,2.8-14.8
			c2.1-10.9,4.3-21.9,6.2-32.8c1.9-10.6,3.7-21.3,5.6-31.9c1.8-10.4,4-21.1,3.7-31.7C989.8,521.7,987.6,520.9,987,522.4z"/>
		<path class="st9" d="M1125.5,501.5c-7.3,7.2-11.8,17.8-16.4,26.8c-4.9,9.6-9.3,19.4-13.4,29.3c-4.1,9.8-7.7,19.8-11,29.9
			c-1.7,5.4-3.4,10.8-4.9,16.2c-1.3,4.6-3.7,10.3-0.6,14.5c1.6,2,3.6,2.7,6,1.6c4.6-2.1,5.1-7.3,6.3-11.8c1.4-5.1,2.8-10.3,4.3-15.3
			c3-10.2,6.5-20.2,10-30.2c3.6-10.2,7.7-20.3,12-30.2c4-9.2,9.7-18.5,11.9-28.3C1130.2,501.5,1127.3,499.6,1125.5,501.5z"/>
		<path class="st9" d="M1184.8,381c-6.5,6.4-11.3,15.9-15.9,23.8c-4.8,8.1-9.1,16.4-13.1,24.9c-3.9,8.4-7.6,16.9-10.7,25.6
			c-1.3,3.6-2.4,7.2-3.4,10.8c-3.2-8.4-8.1-16.7-12.6-23.7c-6.8-10.7-15.2-20-24.7-28.2c-2.9-2.5-6.8,1.4-4.2,4.2
			c8.2,8.9,15.4,18.9,21.4,29.5c2.8,5,5.3,10.2,7.5,15.5c2.4,5.7,3.8,11.8,6.4,17.3c1.2,2.6,3.5,3.1,5.4,2.3
			c0.9,0.6,1.9,0.8,2.8,0.1c3.3-2.5,4.5-6,6.1-9.8c1.9-4.5,3.9-9,5.8-13.6c3.5-8.3,7.2-16.6,11.2-24.8c4-8.1,8.3-16.1,12.7-24
			c4.6-8.2,10.8-16.1,14.4-24.7C1195.9,381,1188.3,377.6,1184.8,381z"/>
	</g>
</g>
</svg>
